<?xml version="1.0" encoding="utf-8"?>
<!-- Generator: Adobe Illustrator 24.1.1, SVG Export Plug-In . SVG Version: 6.00 Build 0)  -->
<svg version="1.1" id="Camada_1" xmlns="http://www.w3.org/2000/svg" xmlns:xlink="http://www.w3.org/1999/xlink" x="0px" y="0px"
	 viewBox="0 0 1500 218.9" style="enable-background:new 0 0 1500 218.9;" xml:space="preserve">
<style type="text/css">
	.st0{fill:#272727;}
	.st1{fill:#ED4D15;}
	.st2{enable-background:new    ;}
</style>
<g>
	<path class="st0" d="M133.9,88.5c-6.9-15.9-22.5-29.6-45-29.6c-27.9,0-48.4,22.2-48.4,49.2c0,27.1,20.6,48.6,48.4,48.8
		c22.3,0,38.4-13.7,45-29.2l24.2,14.2c-11.8,23.7-36.7,42.1-69.2,42.1c-44.4,0-76.7-33.2-76.7-75.9c0-42.9,32.4-76.3,76.7-76.3
		c29.6,0,55.9,15.2,69.5,42.3L133.9,88.5z"/>
	<path class="st0" d="M321,108.1c0,42.5-33.7,75.9-77.2,75.9c-43.3,0-76.7-33.2-76.7-75.9c0-42.9,33.4-76.3,76.7-76.3
		C287.4,31.8,321,65.2,321,108.1z M292.7,108.1c0-27.1-20.8-49.2-48.9-49.2c-27.9,0-48.4,22.2-48.4,49.2c0,27.1,20.6,48.8,48.4,48.8
		C271.5,157,292.7,135.2,292.7,108.1z"/>
	<path class="st0" d="M338.6,33.9h24.7l75.2,99.6V33.9h28.3v148h-24.7l-75.2-98.3v98.3h-28.3L338.6,33.9L338.6,33.9z"/>
	<path class="st0" d="M494.5,144.5c11.4,6.1,29.2,12.9,43.1,12.9c14.8,0,23.8-7.8,23.8-17.3c0-27.9-74-19.2-74-67
		c0-24.7,22.3-40.8,49.7-41.2c15.9,0,30,3,44.4,9.9l-10.1,24.1c-11.1-4.4-21.4-7.4-35.2-7.4c-11.4,0-20.4,5.5-20.4,14.6
		c0,23.7,73.7,15.9,73.7,66.6c0,20.1-16.5,44.4-52.5,44.4c-19.5,0-37.7-5.7-54-14.6L494.5,144.5z"/>
	<path class="st0" d="M633.8,181.9h-28.3v-148h28.3V181.9z"/>
	<path class="st0" d="M728.1,184c-44.4,0-76.7-33.2-76.7-75.9c0-43.5,32.4-76.3,77-76.3c25.7,0,49.5,12,63.9,33l-24,14.8
		c-8.4-12.7-23.4-20.7-40.1-20.7c-28.5,0-48.4,22.6-48.4,49.2c0,27.1,21,48.8,48.4,48.8c16.7,0,29.6-7.8,36.4-15.4v-18.2h-34.9v-22
		h62.6v51.1C778.5,170.9,755.3,184,728.1,184z"/>
	<path class="st0" d="M809.8,33.9h24.7l75.2,99.6V33.9H938v148h-24.7l-75.2-98.3v98.3h-28.3V33.9z"/>
	<path class="st0" d="M998.8,33.9h34.7l48,148h-29.8l-10.1-31.9h-51.2l-9.9,31.9h-29.8L998.8,33.9z M1035.5,124l-19.3-59.6
		L996.9,124H1035.5z"/>
</g>
<g>
	<g>
		<g>
			<path class="st1" d="M1360.8,33.9h24.7l75.2,99.6V33.9h28.3v148h-24.7l-75.2-98.3v98.3h-28.3V33.9z"/>
		</g>
	</g>
</g>
<g>
	<path class="st0" d="M1287.7,158v7.6c0,11.2-8.6,19.9-19.8,19.9l-104.2,0.3c-43.8,0-77.2-33.9-77.2-75.4
		c0-42.4,33.3-75.9,77.2-75.9l103.2,0.2c12,0,20.8,9.5,20.8,21.5v6.2l-39-5.4l-11,5.4h-45.3h-27.6c-27.2,0-49.5,19.7-49.5,48
		c0,27.2,22.4,47.5,49.5,47.5h27.6h51.1l9,4L1287.7,158z"/>
</g>
<g class="st2">
	<path class="st1" d="M1264.2,34.7c43.1,0,76.4,33.1,76.4,75.7c0,42.4-33.3,75.3-76.4,75.3c-43.3,0-76.8-33.1-76.8-75.3
		C1187.5,67.8,1220.9,34.7,1264.2,34.7z M1264.2,158.9c27.7,0,48.2-21.6,48.2-48.4s-20.5-48.9-48.2-48.9c-27.9,0-48.6,22-48.6,48.9
		S1236.7,158.9,1264.2,158.9z"/>
</g>
</svg>
